<?xml version="1.0" encoding="utf-8"?>
<!-- Generator: Adobe Illustrator 23.0.1, SVG Export Plug-In . SVG Version: 6.00 Build 0)  -->
<svg version="1.1" id="Layer_1" xmlns="http://www.w3.org/2000/svg" xmlns:xlink="http://www.w3.org/1999/xlink" x="0px" y="0px"
	 viewBox="0 0 121 17" style="enable-background:new 0 0 121 17;" xml:space="preserve">
<path d="M5.6,16.3c-0.9,0-1.7-0.1-2.5-0.3c-0.6-0.2-1.2-0.5-1.7-0.9c-0.5-0.5-1-1-1.4-1.6l2-1.6c0.4,0.7,1,1.2,1.6,1.7
	c0.6,0.3,1.3,0.5,2,0.5c0.8,0.1,1.7-0.1,2.4-0.5c0.3-0.2,0.5-0.4,0.6-0.7c0.1-0.3,0.2-0.6,0.2-0.9c0-0.2,0-0.3-0.1-0.5
	c-0.1-0.2-0.2-0.3-0.3-0.4c-0.4-0.3-0.8-0.5-1.2-0.6C6.3,10.3,5.5,10,4.6,9.9c-1.1-0.2-2.2-0.7-3-1.5c-0.7-0.8-1-1.8-1-2.9
	c0-0.8,0.2-1.6,0.6-2.2c0.5-0.7,1.1-1.2,1.9-1.5C4.1,1.4,5,1.3,6,1.3c1.1-0.1,2.3,0.2,3.3,0.6c0.8,0.4,1.5,1,2,1.8L9.4,5.3
	C9,4.9,8.7,4.6,8.3,4.3C8,4.1,7.7,3.9,7.3,3.8C6.9,3.6,6.5,3.6,6,3.6c-0.6,0-1.3,0.1-1.8,0.5C4,4.3,3.9,4.5,3.7,4.8
	C3.6,5,3.6,5.3,3.6,5.6c0,0.3,0.1,0.5,0.2,0.8c0.1,0.2,0.3,0.4,0.6,0.6c0.6,0.3,1.3,0.5,2,0.7c1,0.2,1.9,0.4,2.8,0.8
	c0.7,0.3,1.3,0.7,1.8,1.3c0.5,0.7,0.8,1.5,0.7,2.4c0,0.6-0.1,1.2-0.3,1.8c-0.3,0.6-0.7,1.1-1.2,1.4C8.8,16.1,7.2,16.5,5.6,16.3z
	 M17.9,16.3c-1.2,0.1-2.4-0.3-3.3-1c-0.4-0.4-0.7-0.8-0.9-1.3c-0.2-0.5-0.3-1-0.3-1.6V9.9c0-0.5,0.1-1.1,0.3-1.6s0.5-0.9,0.9-1.3
	c1-0.7,2.1-1.1,3.3-1c1.2-0.1,2.4,0.3,3.3,1c0.4,0.4,0.7,0.8,0.9,1.3s0.3,1,0.3,1.6v2.6c0,0.5-0.1,1.1-0.3,1.6
	c-0.2,0.5-0.5,0.9-0.9,1.3C20.2,16.1,19.1,16.4,17.9,16.3L17.9,16.3z M17.9,14.3c0.2,0,0.5,0,0.7-0.1c0.2-0.1,0.4-0.2,0.6-0.4
	c0.2-0.2,0.3-0.4,0.4-0.6c0.1-0.2,0.1-0.5,0.1-0.7V9.9c0-0.2,0-0.5-0.1-0.7c-0.1-0.2-0.2-0.4-0.4-0.6c-0.2-0.2-0.4-0.3-0.6-0.4
	c-0.2-0.1-0.5-0.1-0.7-0.1c-0.5,0-1,0.1-1.3,0.5c-0.2,0.2-0.3,0.4-0.4,0.6c-0.1,0.2-0.1,0.5-0.1,0.7v2.6c0,0.2,0,0.5,0.1,0.7
	c0.1,0.2,0.2,0.4,0.4,0.6C16.9,14.1,17.4,14.3,17.9,14.3L17.9,14.3z M26.6,16.3c-0.6-0.3-1.1-0.7-1.5-1.2c-0.3-0.6-0.5-1.3-0.4-2
	V3.8c0-0.3-0.1-0.6-0.2-0.9c-0.2-0.3-0.5-0.6-0.8-0.8l1.8-1.6c0.6,0.3,1.1,0.7,1.5,1.2c0.3,0.6,0.5,1.3,0.4,1.9v9.4
	c0,0.3,0.1,0.6,0.2,0.9c0.2,0.3,0.5,0.6,0.8,0.8L26.6,16.3z M39.1,13c0,0.3,0.1,0.6,0.2,0.9c0.2,0.3,0.5,0.6,0.8,0.8l-1.8,1.6
	c-0.4-0.2-0.8-0.4-1.1-0.7c-0.3-0.3-0.5-0.6-0.6-0.9c-0.3,0.5-0.7,1-1.2,1.3c-0.5,0.3-1.1,0.5-1.7,0.4c-0.5,0-0.9,0-1.4-0.2
	c-0.4-0.1-0.8-0.4-1.2-0.7c-0.3-0.3-0.6-0.7-0.7-1.2c-0.2-0.4-0.2-0.9-0.2-1.3V6.3h2.7v6.4c0,0.4,0.1,0.8,0.4,1.1
	c0.1,0.1,0.3,0.3,0.5,0.3s0.4,0.1,0.6,0.1c0.9,0,1.6-0.6,2-1.8V6.3h2.7L39.1,13z M44.5,8.4v4c0,0.4,0.1,0.9,0.3,1.2
	c0.1,0.1,0.3,0.2,0.4,0.3c0.2,0.1,0.3,0.1,0.5,0.1h1.6v2.1h-1.6c-0.8,0-1.6-0.1-2.3-0.4c-0.5-0.2-1-0.6-1.2-1.1
	c-0.3-0.7-0.4-1.4-0.4-2.2V4.8c0-0.3-0.1-0.6-0.2-0.9c-0.2-0.3-0.5-0.6-0.8-0.8l1.8-1.6c0.6,0.3,1.1,0.7,1.5,1.2
	c0.3,0.6,0.5,1.3,0.4,1.9v1.6h2.8v2.1H44.5z M50.6,5c-0.2,0-0.4,0-0.6-0.1s-0.4-0.2-0.5-0.3c-0.1-0.1-0.3-0.3-0.3-0.5
	c-0.1-0.2-0.1-0.4-0.1-0.6c0-0.2,0-0.4,0.1-0.6c0.1-0.2,0.2-0.4,0.3-0.5C49.7,2.2,49.8,2.1,50,2c0.2-0.1,0.4-0.1,0.6-0.1
	c0.2,0,0.4,0,0.6,0.1c0.2,0.1,0.4,0.2,0.5,0.4C51.8,2.5,52,2.7,52,2.9c0.1,0.2,0.1,0.4,0.1,0.6c0,0.2,0,0.4-0.1,0.6
	s-0.2,0.4-0.4,0.5c-0.1,0.1-0.3,0.3-0.5,0.3C51,5,50.8,5,50.6,5L50.6,5z M51.2,16.3c-0.6-0.3-1.1-0.7-1.5-1.2
	c-0.3-0.6-0.5-1.3-0.4-2V6.3H52v6.8c0,0.3,0.1,0.6,0.2,0.9c0.2,0.3,0.5,0.6,0.8,0.8L51.2,16.3z M59,16.3c-1.2,0.1-2.4-0.3-3.3-1
	C55.3,15,55,14.5,54.8,14c-0.2-0.5-0.3-1-0.3-1.6V9.9c0-0.5,0.1-1.1,0.3-1.6s0.5-0.9,0.9-1.3c1-0.7,2.1-1.1,3.3-1
	c1.2-0.1,2.4,0.3,3.3,1c0.4,0.4,0.7,0.8,0.9,1.3s0.3,1,0.3,1.6v2.6c0,0.5-0.1,1.1-0.3,1.6c-0.2,0.5-0.5,0.9-0.9,1.3
	C61.4,16.1,60.2,16.4,59,16.3L59,16.3z M59,14.3c0.2,0,0.5,0,0.7-0.1c0.2-0.1,0.4-0.2,0.6-0.4c0.2-0.2,0.3-0.4,0.4-0.6
	c0.1-0.2,0.1-0.5,0.1-0.7V9.9c0-0.2,0-0.5-0.1-0.7c-0.1-0.2-0.2-0.4-0.4-0.6c-0.2-0.2-0.4-0.3-0.6-0.4c-0.2-0.1-0.5-0.1-0.7-0.1
	c-0.5,0-1,0.1-1.3,0.5c-0.2,0.2-0.3,0.4-0.4,0.6c-0.1,0.2-0.1,0.5-0.1,0.7v2.6c0,0.2,0,0.5,0.1,0.7c0.1,0.2,0.2,0.4,0.4,0.6
	C58.1,14.1,58.5,14.3,59,14.3L59,14.3z M71.3,6.1c0.4,0,0.9,0,1.3,0.2s0.8,0.4,1.1,0.7c0.3,0.3,0.5,0.7,0.7,1.2
	c0.2,0.4,0.2,0.9,0.2,1.3v6.7H72V9.7c0-0.4-0.1-0.8-0.4-1.1c-0.1-0.1-0.3-0.2-0.5-0.3c-0.2-0.1-0.4-0.1-0.6-0.1
	c-0.5,0-0.9,0.2-1.3,0.5c-0.4,0.3-0.6,0.7-0.7,1.1v6.3h-2.7V9.3c0-0.3-0.1-0.6-0.2-0.9c-0.2-0.3-0.5-0.6-0.8-0.8l1.8-1.6
	c0.4,0.2,0.7,0.4,1,0.7C68,7,68.2,7.3,68.3,7.7c0.3-0.5,0.7-0.9,1.2-1.1C70.1,6.2,70.7,6,71.3,6.1L71.3,6.1z M77.7,1.5h6.4
	c1.2-0.1,2.5,0.3,3.5,1c0.4,0.4,0.7,0.8,1,1.3s0.3,1,0.3,1.6c0,0.7-0.2,1.3-0.6,1.9c-0.5,0.6-1.1,1-1.8,1.1c0.8,0.1,1.6,0.6,2.1,1.2
	c0.6,0.7,0.8,1.6,0.8,2.5c0,0.6-0.1,1.1-0.3,1.6c-0.2,0.5-0.6,1-1,1.3c-1,0.8-2.3,1.1-3.5,1.1h-6.7V1.5z M84,7.4
	c0.2,0,0.5,0,0.7-0.1c0.2-0.1,0.4-0.2,0.6-0.4c0.2-0.2,0.3-0.4,0.4-0.6c0.1-0.2,0.1-0.5,0.1-0.7c0-0.2,0-0.5-0.1-0.7
	c-0.1-0.2-0.2-0.4-0.4-0.6C85.2,4.2,85,4,84.7,3.9c-0.2-0.1-0.5-0.1-0.7-0.1h-3.4v3.6H84z M83.8,13.8c0.7,0.1,1.3-0.1,1.9-0.5
	c0.2-0.2,0.4-0.4,0.5-0.7c0.1-0.3,0.2-0.6,0.1-0.9c0-0.3,0-0.6-0.1-0.8c-0.1-0.3-0.3-0.5-0.5-0.7c-0.6-0.4-1.2-0.6-1.9-0.5h-3.2v4.1
	H83.8z M99.8,13.1c0,0.3,0.1,0.6,0.2,0.9c0.2,0.3,0.5,0.6,0.8,0.8L99,16.3c-0.7-0.3-1.3-0.8-1.6-1.5c-0.3,0.5-0.8,0.8-1.2,1.1
	c-0.6,0.3-1.3,0.5-2,0.4c-0.8,0-1.7-0.2-2.3-0.7c-0.3-0.3-0.5-0.6-0.7-1C91,14.2,91,13.8,91,13.4c0-0.7,0.2-1.4,0.6-1.9
	c0.4-0.4,0.9-0.8,1.5-0.9c0.6-0.2,1.3-0.3,1.9-0.4l1-0.1c0.3,0,0.6-0.1,0.8-0.2c0.1,0,0.2-0.1,0.2-0.2c0-0.1,0.1-0.2,0.1-0.3
	c0-0.4-0.2-0.8-0.4-1.1c-0.2-0.2-0.4-0.3-0.6-0.4c-0.2-0.1-0.5-0.1-0.7-0.1c-0.4,0-0.8,0.1-1.2,0.2c-0.4,0.2-0.7,0.5-1,0.8l-1.8-1.3
	c0.4-0.5,0.9-0.9,1.5-1.2c0.8-0.3,1.7-0.5,2.5-0.4c3,0,4.5,1.2,4.5,3.6L99.8,13.1z M94.9,14.4c0.6,0,1.2-0.1,1.7-0.5
	c0.2-0.2,0.3-0.4,0.4-0.6c0.1-0.2,0.2-0.5,0.1-0.7v-0.9c-0.4,0.1-0.8,0.2-1.3,0.2L95.2,12c-0.4,0-0.8,0.1-1.2,0.3
	c-0.2,0.1-0.3,0.2-0.4,0.4c-0.1,0.2-0.1,0.4-0.1,0.5c0,0.2,0,0.3,0.1,0.5c0.1,0.1,0.2,0.3,0.3,0.4C94.2,14.3,94.6,14.4,94.9,14.4
	L94.9,14.4z M105.7,16.3c-0.6,0-1.3-0.1-1.9-0.2c-0.4-0.1-0.8-0.3-1.2-0.6c-0.3-0.3-0.6-0.6-0.9-1l1.7-1.4c0.3,0.4,0.6,0.7,1,0.9
	c0.4,0.2,0.8,0.3,1.3,0.2c0.4,0,0.9,0,1.3-0.2c0.1-0.1,0.2-0.2,0.3-0.3c0.1-0.1,0.1-0.3,0.1-0.4c0-0.2-0.1-0.3-0.2-0.4
	c-0.1-0.1-0.2-0.2-0.4-0.3c-0.6-0.2-1.3-0.4-2-0.5c-1.9-0.4-2.9-1.4-2.9-3.2c0-0.4,0.1-0.8,0.3-1.2c0.2-0.4,0.5-0.7,0.8-0.9
	c0.8-0.6,1.8-0.8,2.8-0.8c0.8,0,1.6,0.1,2.3,0.4c0.6,0.3,1.1,0.7,1.4,1.2l-1.7,1.4c-0.3-0.3-0.6-0.6-1-0.8c-0.3-0.2-0.7-0.2-1.1-0.2
	c-0.9,0-1.3,0.3-1.3,0.9c0,0.1,0,0.3,0.1,0.4c0.1,0.1,0.2,0.2,0.3,0.3c0.4,0.2,0.7,0.3,1.1,0.4c0.7,0.1,1.4,0.3,2,0.6
	c0.5,0.2,0.9,0.5,1.3,0.9c0.4,0.5,0.6,1.1,0.5,1.8c0,0.4-0.1,0.9-0.2,1.3c-0.2,0.4-0.5,0.7-0.8,1C107.9,16.2,106.8,16.4,105.7,16.3
	L105.7,16.3z M115.8,14.3c0.4,0,0.8,0,1.2-0.2c0.4-0.2,0.7-0.4,1-0.7l1.6,1.5c-0.5,0.5-1.1,0.9-1.8,1.2c-0.7,0.3-1.4,0.4-2.1,0.3
	c-1.2,0.1-2.4-0.2-3.5-0.9c-0.4-0.4-0.7-0.8-0.9-1.4s-0.3-1.1-0.2-1.6v-3c0-0.5,0.1-1,0.3-1.4c0.2-0.4,0.5-0.8,0.9-1.1
	c0.9-0.7,2-1,3.2-0.9c1.2-0.1,2.3,0.3,3.2,1c0.4,0.4,0.7,0.8,0.9,1.3c0.2,0.5,0.3,1,0.3,1.6c0,0.5,0,1-0.2,1.4
	c0,0.2-0.1,0.3-0.2,0.4c-0.1,0.1-0.2,0.2-0.4,0.3c-0.4,0.2-0.9,0.3-1.3,0.2H114v0.2c0,0.2,0,0.5,0.1,0.7c0.1,0.2,0.2,0.4,0.4,0.6
	c0.2,0.2,0.4,0.3,0.6,0.4C115.3,14.3,115.6,14.3,115.8,14.3z M115.6,8.1c-0.2,0-0.4,0-0.7,0.1c-0.2,0.1-0.4,0.2-0.6,0.4
	c-0.3,0.3-0.4,0.7-0.4,1.2v0.7h2.4c0.3,0,0.5,0,0.7-0.2c0.1-0.1,0.1-0.2,0.2-0.3c0-0.1,0-0.2,0-0.3c0-0.2,0-0.4-0.1-0.6
	c-0.1-0.2-0.2-0.4-0.3-0.6C116.5,8.2,116.1,8.1,115.6,8.1L115.6,8.1z"/>
</svg>
